# xmcd CD database file
#
# Track frame offsets:
#	150
#	15637
#	30065
#	46385
#	60367
#	74667
#	89367
#	103977
#	115970
#	130747
#	144127
#	156765
#	170750
#	196377
#	209397
#	223357
#	236812
#	249957
#	263232
#	276755
#
# Disc length: 3911 seconds
#
# Revision: 0
# Processed by: cddbd v1.5.1PL0 Copyright (c) Steve Scherf et al.
# Submitted via: CDex 1.51
#
DISCID=250f4514
DTITLE=Duke Ellington Disc 1 - Starring Duke Ellington
DYEAR=1998
DGENRE=Jazz
TTITLE0=Black And Tan Fantasy
TTITLE1=Creole Love Call
TTITLE2=East St Louis Toodle-oo
TTITLE3=The Blues I Love To Sing
TTITLE4=Black Beauty
TTITLE5=Hot And Bothered
TTITLE6=misty Mornin'
TTITLE7=Take It Easy
TTITLE8=The Mooche
TTITLE9=Cotton Club Stomp
TTITLE10=Saratoga Swing
TTITLE11=The Dicty Glide
TTITLE12=Tiger Rag
TTITLE13=Mood Indigo
TTITLE14=Old Man Blues
TTITLE15=Ring Dem Bells
TTITLE16=Rocken' In Rhythm
TTITLE17=Mood Over Dixie
TTITLE18=The Sheik Of Araby
TTITLE19=Sophisticated Lady
EXTD=YEAR: 1998
EXTT0=
EXTT1=
EXTT2=
EXTT3=
EXTT4=
EXTT5=
EXTT6=
EXTT7=
EXTT8=
EXTT9=
EXTT10=
EXTT11=
EXTT12=
EXTT13=
EXTT14=
EXTT15=
EXTT16=
EXTT17=
EXTT18=
EXTT19=
PLAYORDER=
